<mxfile host="app.diagrams.net" agent="Mozilla/5.0 (Windows NT 10.0; Win64; x64) AppleWebKit/537.36 (KHTML, like Gecko) Chrome/138.0.0.0 Safari/537.36" version="27.1.6">
  <diagram name="페이지-1" id="izoFnQnV2t8U9LobNprG">
    <mxGraphModel dx="400" dy="747" grid="1" gridSize="10" guides="1" tooltips="1" connect="1" arrows="1" fold="1" page="1" pageScale="1" pageWidth="827" pageHeight="1169" math="0" shadow="0">
      <root>
        <mxCell id="0" />
        <mxCell id="1" parent="0" />
        <mxCell id="qLjY339bRdC8h9kaeLes-156" value="" style="rounded=0;whiteSpace=wrap;html=1;strokeColor=none;" vertex="1" parent="1">
          <mxGeometry x="1108.5" y="730" width="291.5" height="200" as="geometry" />
        </mxCell>
        <mxCell id="qLjY339bRdC8h9kaeLes-50" value="" style="rounded=0;whiteSpace=wrap;html=1;strokeColor=none;" vertex="1" parent="1">
          <mxGeometry x="430" y="190" width="540" height="230" as="geometry" />
        </mxCell>
        <mxCell id="qLjY339bRdC8h9kaeLes-10" value="" style="rounded=0;whiteSpace=wrap;html=1;fillColor=default;strokeColor=none;" vertex="1" parent="1">
          <mxGeometry x="190" y="336" width="210" height="84" as="geometry" />
        </mxCell>
        <mxCell id="qLjY339bRdC8h9kaeLes-1" value="v" style="ellipse;whiteSpace=wrap;html=1;aspect=fixed;" vertex="1" parent="1">
          <mxGeometry x="250" y="370" width="30" height="30" as="geometry" />
        </mxCell>
        <mxCell id="qLjY339bRdC8h9kaeLes-2" value="1" style="endArrow=classic;html=1;rounded=0;strokeColor=#000000;" edge="1" parent="1" target="qLjY339bRdC8h9kaeLes-1">
          <mxGeometry width="50" height="50" relative="1" as="geometry">
            <mxPoint x="200" y="360" as="sourcePoint" />
            <mxPoint x="270" y="360" as="targetPoint" />
          </mxGeometry>
        </mxCell>
        <mxCell id="qLjY339bRdC8h9kaeLes-3" value="1" style="endArrow=classic;html=1;rounded=0;strokeColor=#DFDFDF;" edge="1" parent="1" target="qLjY339bRdC8h9kaeLes-1">
          <mxGeometry width="50" height="50" relative="1" as="geometry">
            <mxPoint x="200" y="410" as="sourcePoint" />
            <mxPoint x="232" y="427" as="targetPoint" />
            <Array as="points">
              <mxPoint x="220" y="400" />
            </Array>
          </mxGeometry>
        </mxCell>
        <mxCell id="qLjY339bRdC8h9kaeLes-5" value="1" style="endArrow=classic;html=1;rounded=0;" edge="1" parent="1" source="qLjY339bRdC8h9kaeLes-1" target="qLjY339bRdC8h9kaeLes-11">
          <mxGeometry width="50" height="50" relative="1" as="geometry">
            <mxPoint x="290.35" y="400.05" as="sourcePoint" />
            <mxPoint x="320" y="385" as="targetPoint" />
          </mxGeometry>
        </mxCell>
        <mxCell id="qLjY339bRdC8h9kaeLes-8" value="유입=2" style="text;html=1;align=center;verticalAlign=middle;whiteSpace=wrap;rounded=0;" vertex="1" parent="1">
          <mxGeometry x="200" y="340" width="40" height="20" as="geometry" />
        </mxCell>
        <mxCell id="qLjY339bRdC8h9kaeLes-9" value="유출=3" style="text;html=1;align=center;verticalAlign=middle;whiteSpace=wrap;rounded=0;" vertex="1" parent="1">
          <mxGeometry x="340" y="340" width="40" height="20" as="geometry" />
        </mxCell>
        <mxCell id="qLjY339bRdC8h9kaeLes-11" value="v&#39;" style="ellipse;whiteSpace=wrap;html=1;aspect=fixed;" vertex="1" parent="1">
          <mxGeometry x="300" y="370" width="30" height="30" as="geometry" />
        </mxCell>
        <mxCell id="qLjY339bRdC8h9kaeLes-12" value="1" style="endArrow=classic;html=1;rounded=0;strokeColor=#DFDFDF;" edge="1" source="qLjY339bRdC8h9kaeLes-11" parent="1">
          <mxGeometry width="50" height="50" relative="1" as="geometry">
            <mxPoint x="360" y="351.21" as="sourcePoint" />
            <mxPoint x="380" y="360" as="targetPoint" />
          </mxGeometry>
        </mxCell>
        <mxCell id="qLjY339bRdC8h9kaeLes-13" value="1" style="endArrow=classic;html=1;rounded=0;strokeColor=#000000;" edge="1" source="qLjY339bRdC8h9kaeLes-11" parent="1">
          <mxGeometry width="50" height="50" relative="1" as="geometry">
            <mxPoint x="360.35" y="400.05" as="sourcePoint" />
            <mxPoint x="390" y="385" as="targetPoint" />
          </mxGeometry>
        </mxCell>
        <mxCell id="qLjY339bRdC8h9kaeLes-14" value="1" style="endArrow=classic;html=1;rounded=0;strokeColor=#DFDFDF;" edge="1" source="qLjY339bRdC8h9kaeLes-11" parent="1">
          <mxGeometry width="50" height="50" relative="1" as="geometry">
            <mxPoint x="350" y="410" as="sourcePoint" />
            <mxPoint x="380" y="410" as="targetPoint" />
          </mxGeometry>
        </mxCell>
        <mxCell id="qLjY339bRdC8h9kaeLes-16" value="용량=1" style="text;html=1;align=center;verticalAlign=middle;whiteSpace=wrap;rounded=0;" vertex="1" parent="1">
          <mxGeometry x="270" y="340" width="40" height="20" as="geometry" />
        </mxCell>
        <mxCell id="qLjY339bRdC8h9kaeLes-15" value="" style="rounded=1;whiteSpace=wrap;html=1;fillColor=none;" vertex="1" parent="1">
          <mxGeometry x="240" y="360" width="100" height="50" as="geometry" />
        </mxCell>
        <mxCell id="qLjY339bRdC8h9kaeLes-17" value="1" style="ellipse;whiteSpace=wrap;html=1;aspect=fixed;fontSize=18;" vertex="1" parent="1">
          <mxGeometry x="510" y="220" width="30" height="30" as="geometry" />
        </mxCell>
        <mxCell id="qLjY339bRdC8h9kaeLes-18" value="2" style="ellipse;whiteSpace=wrap;html=1;aspect=fixed;fontSize=18;" vertex="1" parent="1">
          <mxGeometry x="510" y="300" width="30" height="30" as="geometry" />
        </mxCell>
        <mxCell id="qLjY339bRdC8h9kaeLes-19" value="3" style="ellipse;whiteSpace=wrap;html=1;aspect=fixed;fontSize=18;" vertex="1" parent="1">
          <mxGeometry x="510" y="370" width="30" height="30" as="geometry" />
        </mxCell>
        <mxCell id="qLjY339bRdC8h9kaeLes-24" value="h" style="ellipse;whiteSpace=wrap;html=1;aspect=fixed;fontSize=18;" vertex="1" parent="1">
          <mxGeometry x="850" y="220" width="30" height="30" as="geometry" />
        </mxCell>
        <mxCell id="qLjY339bRdC8h9kaeLes-25" value="i" style="ellipse;whiteSpace=wrap;html=1;aspect=fixed;fontSize=18;" vertex="1" parent="1">
          <mxGeometry x="850" y="300" width="30" height="30" as="geometry" />
        </mxCell>
        <mxCell id="qLjY339bRdC8h9kaeLes-26" value="j" style="ellipse;whiteSpace=wrap;html=1;aspect=fixed;fontSize=18;" vertex="1" parent="1">
          <mxGeometry x="850" y="370" width="30" height="30" as="geometry" />
        </mxCell>
        <mxCell id="qLjY339bRdC8h9kaeLes-29" value="S" style="ellipse;whiteSpace=wrap;html=1;aspect=fixed;fontSize=18;" vertex="1" parent="1">
          <mxGeometry x="440" y="300" width="30" height="30" as="geometry" />
        </mxCell>
        <mxCell id="qLjY339bRdC8h9kaeLes-30" value="T" style="ellipse;whiteSpace=wrap;html=1;aspect=fixed;fontSize=18;" vertex="1" parent="1">
          <mxGeometry x="920" y="300" width="30" height="30" as="geometry" />
        </mxCell>
        <mxCell id="qLjY339bRdC8h9kaeLes-33" value="1" style="endArrow=classic;html=1;rounded=0;" edge="1" parent="1" source="qLjY339bRdC8h9kaeLes-29" target="qLjY339bRdC8h9kaeLes-19">
          <mxGeometry width="50" height="50" relative="1" as="geometry">
            <mxPoint x="530" y="420" as="sourcePoint" />
            <mxPoint x="580" y="370" as="targetPoint" />
          </mxGeometry>
        </mxCell>
        <mxCell id="qLjY339bRdC8h9kaeLes-34" value="1" style="endArrow=classic;html=1;rounded=0;" edge="1" parent="1" source="qLjY339bRdC8h9kaeLes-29" target="qLjY339bRdC8h9kaeLes-18">
          <mxGeometry width="50" height="50" relative="1" as="geometry">
            <mxPoint x="530" y="420" as="sourcePoint" />
            <mxPoint x="580" y="370" as="targetPoint" />
          </mxGeometry>
        </mxCell>
        <mxCell id="qLjY339bRdC8h9kaeLes-35" value="1" style="endArrow=classic;html=1;rounded=0;" edge="1" parent="1" source="qLjY339bRdC8h9kaeLes-29" target="qLjY339bRdC8h9kaeLes-17">
          <mxGeometry width="50" height="50" relative="1" as="geometry">
            <mxPoint x="530" y="420" as="sourcePoint" />
            <mxPoint x="580" y="370" as="targetPoint" />
          </mxGeometry>
        </mxCell>
        <mxCell id="qLjY339bRdC8h9kaeLes-38" value="1" style="endArrow=classic;html=1;rounded=0;" edge="1" parent="1" source="qLjY339bRdC8h9kaeLes-26" target="qLjY339bRdC8h9kaeLes-30">
          <mxGeometry width="50" height="50" relative="1" as="geometry">
            <mxPoint x="740" y="420" as="sourcePoint" />
            <mxPoint x="790" y="370" as="targetPoint" />
          </mxGeometry>
        </mxCell>
        <mxCell id="qLjY339bRdC8h9kaeLes-39" value="1" style="endArrow=classic;html=1;rounded=0;" edge="1" parent="1" source="qLjY339bRdC8h9kaeLes-25" target="qLjY339bRdC8h9kaeLes-30">
          <mxGeometry width="50" height="50" relative="1" as="geometry">
            <mxPoint x="740" y="420" as="sourcePoint" />
            <mxPoint x="790" y="370" as="targetPoint" />
          </mxGeometry>
        </mxCell>
        <mxCell id="qLjY339bRdC8h9kaeLes-40" value="1" style="endArrow=classic;html=1;rounded=0;" edge="1" parent="1" source="qLjY339bRdC8h9kaeLes-24" target="qLjY339bRdC8h9kaeLes-30">
          <mxGeometry width="50" height="50" relative="1" as="geometry">
            <mxPoint x="740" y="420" as="sourcePoint" />
            <mxPoint x="790" y="370" as="targetPoint" />
          </mxGeometry>
        </mxCell>
        <mxCell id="qLjY339bRdC8h9kaeLes-49" value="모든 간선의 용량 = 1" style="text;html=1;align=center;verticalAlign=middle;whiteSpace=wrap;rounded=0;" vertex="1" parent="1">
          <mxGeometry x="710" y="200" width="140" height="40" as="geometry" />
        </mxCell>
        <mxCell id="qLjY339bRdC8h9kaeLes-52" value="a" style="ellipse;whiteSpace=wrap;html=1;aspect=fixed;fontSize=18;" vertex="1" parent="1">
          <mxGeometry x="580" y="280" width="30" height="30" as="geometry" />
        </mxCell>
        <mxCell id="qLjY339bRdC8h9kaeLes-53" value="c" style="ellipse;whiteSpace=wrap;html=1;aspect=fixed;fontSize=18;" vertex="1" parent="1">
          <mxGeometry x="715" y="310" width="30" height="30" as="geometry" />
        </mxCell>
        <mxCell id="qLjY339bRdC8h9kaeLes-55" value="b" style="ellipse;whiteSpace=wrap;html=1;aspect=fixed;fontSize=18;" vertex="1" parent="1">
          <mxGeometry x="600" y="350" width="30" height="30" as="geometry" />
        </mxCell>
        <mxCell id="qLjY339bRdC8h9kaeLes-56" value="e" style="ellipse;whiteSpace=wrap;html=1;aspect=fixed;fontSize=18;" vertex="1" parent="1">
          <mxGeometry x="680" y="370" width="30" height="30" as="geometry" />
        </mxCell>
        <mxCell id="qLjY339bRdC8h9kaeLes-57" value="f" style="ellipse;whiteSpace=wrap;html=1;aspect=fixed;fontSize=18;" vertex="1" parent="1">
          <mxGeometry x="780" y="260" width="30" height="30" as="geometry" />
        </mxCell>
        <mxCell id="qLjY339bRdC8h9kaeLes-58" value="d" style="ellipse;whiteSpace=wrap;html=1;aspect=fixed;fontSize=18;" vertex="1" parent="1">
          <mxGeometry x="685" y="230" width="30" height="30" as="geometry" />
        </mxCell>
        <mxCell id="qLjY339bRdC8h9kaeLes-59" value="g" style="ellipse;whiteSpace=wrap;html=1;aspect=fixed;fontSize=18;" vertex="1" parent="1">
          <mxGeometry x="780" y="350" width="30" height="30" as="geometry" />
        </mxCell>
        <mxCell id="qLjY339bRdC8h9kaeLes-60" value="" style="endArrow=classic;html=1;rounded=0;" edge="1" parent="1" source="qLjY339bRdC8h9kaeLes-53" target="qLjY339bRdC8h9kaeLes-59">
          <mxGeometry width="50" height="50" relative="1" as="geometry">
            <mxPoint x="690" y="310" as="sourcePoint" />
            <mxPoint x="740" y="260" as="targetPoint" />
          </mxGeometry>
        </mxCell>
        <mxCell id="qLjY339bRdC8h9kaeLes-61" value="" style="endArrow=classic;html=1;rounded=0;" edge="1" parent="1" source="qLjY339bRdC8h9kaeLes-53" target="qLjY339bRdC8h9kaeLes-25">
          <mxGeometry width="50" height="50" relative="1" as="geometry">
            <mxPoint x="690" y="310" as="sourcePoint" />
            <mxPoint x="740" y="260" as="targetPoint" />
          </mxGeometry>
        </mxCell>
        <mxCell id="qLjY339bRdC8h9kaeLes-62" value="" style="endArrow=classic;html=1;rounded=0;" edge="1" parent="1" source="qLjY339bRdC8h9kaeLes-52" target="qLjY339bRdC8h9kaeLes-53">
          <mxGeometry width="50" height="50" relative="1" as="geometry">
            <mxPoint x="690" y="310" as="sourcePoint" />
            <mxPoint x="740" y="260" as="targetPoint" />
          </mxGeometry>
        </mxCell>
        <mxCell id="qLjY339bRdC8h9kaeLes-63" value="" style="endArrow=classic;html=1;rounded=0;" edge="1" parent="1" source="qLjY339bRdC8h9kaeLes-57" target="qLjY339bRdC8h9kaeLes-24">
          <mxGeometry width="50" height="50" relative="1" as="geometry">
            <mxPoint x="690" y="310" as="sourcePoint" />
            <mxPoint x="740" y="260" as="targetPoint" />
          </mxGeometry>
        </mxCell>
        <mxCell id="qLjY339bRdC8h9kaeLes-64" value="" style="endArrow=classic;html=1;rounded=0;" edge="1" parent="1" source="qLjY339bRdC8h9kaeLes-58" target="qLjY339bRdC8h9kaeLes-57">
          <mxGeometry width="50" height="50" relative="1" as="geometry">
            <mxPoint x="690" y="310" as="sourcePoint" />
            <mxPoint x="740" y="260" as="targetPoint" />
          </mxGeometry>
        </mxCell>
        <mxCell id="qLjY339bRdC8h9kaeLes-65" value="" style="endArrow=classic;html=1;rounded=0;" edge="1" parent="1" source="qLjY339bRdC8h9kaeLes-52" target="qLjY339bRdC8h9kaeLes-58">
          <mxGeometry width="50" height="50" relative="1" as="geometry">
            <mxPoint x="690" y="310" as="sourcePoint" />
            <mxPoint x="740" y="260" as="targetPoint" />
          </mxGeometry>
        </mxCell>
        <mxCell id="qLjY339bRdC8h9kaeLes-66" value="" style="endArrow=classic;html=1;rounded=0;" edge="1" parent="1" source="qLjY339bRdC8h9kaeLes-17" target="qLjY339bRdC8h9kaeLes-52">
          <mxGeometry width="50" height="50" relative="1" as="geometry">
            <mxPoint x="690" y="310" as="sourcePoint" />
            <mxPoint x="740" y="260" as="targetPoint" />
          </mxGeometry>
        </mxCell>
        <mxCell id="qLjY339bRdC8h9kaeLes-67" value="" style="endArrow=classic;html=1;rounded=0;" edge="1" parent="1" source="qLjY339bRdC8h9kaeLes-56" target="qLjY339bRdC8h9kaeLes-59">
          <mxGeometry width="50" height="50" relative="1" as="geometry">
            <mxPoint x="690" y="310" as="sourcePoint" />
            <mxPoint x="740" y="260" as="targetPoint" />
          </mxGeometry>
        </mxCell>
        <mxCell id="qLjY339bRdC8h9kaeLes-68" value="" style="endArrow=classic;html=1;rounded=0;" edge="1" parent="1" source="qLjY339bRdC8h9kaeLes-56" target="qLjY339bRdC8h9kaeLes-53">
          <mxGeometry width="50" height="50" relative="1" as="geometry">
            <mxPoint x="690" y="310" as="sourcePoint" />
            <mxPoint x="740" y="260" as="targetPoint" />
          </mxGeometry>
        </mxCell>
        <mxCell id="qLjY339bRdC8h9kaeLes-69" value="" style="endArrow=classic;html=1;rounded=0;" edge="1" parent="1" source="qLjY339bRdC8h9kaeLes-59" target="qLjY339bRdC8h9kaeLes-26">
          <mxGeometry width="50" height="50" relative="1" as="geometry">
            <mxPoint x="690" y="310" as="sourcePoint" />
            <mxPoint x="740" y="260" as="targetPoint" />
          </mxGeometry>
        </mxCell>
        <mxCell id="qLjY339bRdC8h9kaeLes-70" value="" style="endArrow=classic;html=1;rounded=0;" edge="1" parent="1" source="qLjY339bRdC8h9kaeLes-59" target="qLjY339bRdC8h9kaeLes-25">
          <mxGeometry width="50" height="50" relative="1" as="geometry">
            <mxPoint x="690" y="310" as="sourcePoint" />
            <mxPoint x="740" y="260" as="targetPoint" />
          </mxGeometry>
        </mxCell>
        <mxCell id="qLjY339bRdC8h9kaeLes-71" value="" style="endArrow=classic;html=1;rounded=0;" edge="1" parent="1" source="qLjY339bRdC8h9kaeLes-55" target="qLjY339bRdC8h9kaeLes-53">
          <mxGeometry width="50" height="50" relative="1" as="geometry">
            <mxPoint x="690" y="310" as="sourcePoint" />
            <mxPoint x="740" y="260" as="targetPoint" />
          </mxGeometry>
        </mxCell>
        <mxCell id="qLjY339bRdC8h9kaeLes-72" value="" style="endArrow=classic;html=1;rounded=0;" edge="1" parent="1" source="qLjY339bRdC8h9kaeLes-19" target="qLjY339bRdC8h9kaeLes-55">
          <mxGeometry width="50" height="50" relative="1" as="geometry">
            <mxPoint x="690" y="310" as="sourcePoint" />
            <mxPoint x="740" y="260" as="targetPoint" />
          </mxGeometry>
        </mxCell>
        <mxCell id="qLjY339bRdC8h9kaeLes-73" value="" style="endArrow=classic;html=1;rounded=0;" edge="1" parent="1" source="qLjY339bRdC8h9kaeLes-53" target="qLjY339bRdC8h9kaeLes-57">
          <mxGeometry width="50" height="50" relative="1" as="geometry">
            <mxPoint x="690" y="310" as="sourcePoint" />
            <mxPoint x="740" y="260" as="targetPoint" />
          </mxGeometry>
        </mxCell>
        <mxCell id="qLjY339bRdC8h9kaeLes-74" value="" style="endArrow=classic;html=1;rounded=0;" edge="1" parent="1" source="qLjY339bRdC8h9kaeLes-18" target="qLjY339bRdC8h9kaeLes-55">
          <mxGeometry width="50" height="50" relative="1" as="geometry">
            <mxPoint x="690" y="310" as="sourcePoint" />
            <mxPoint x="740" y="260" as="targetPoint" />
          </mxGeometry>
        </mxCell>
        <mxCell id="qLjY339bRdC8h9kaeLes-75" value="" style="endArrow=classic;html=1;rounded=0;" edge="1" parent="1" source="qLjY339bRdC8h9kaeLes-55" target="qLjY339bRdC8h9kaeLes-56">
          <mxGeometry width="50" height="50" relative="1" as="geometry">
            <mxPoint x="690" y="310" as="sourcePoint" />
            <mxPoint x="740" y="260" as="targetPoint" />
          </mxGeometry>
        </mxCell>
        <mxCell id="qLjY339bRdC8h9kaeLes-76" value="" style="endArrow=classic;html=1;rounded=0;" edge="1" parent="1" source="qLjY339bRdC8h9kaeLes-19" target="qLjY339bRdC8h9kaeLes-52">
          <mxGeometry width="50" height="50" relative="1" as="geometry">
            <mxPoint x="690" y="310" as="sourcePoint" />
            <mxPoint x="740" y="260" as="targetPoint" />
          </mxGeometry>
        </mxCell>
        <mxCell id="qLjY339bRdC8h9kaeLes-77" value="" style="endArrow=classic;html=1;rounded=0;" edge="1" parent="1" source="qLjY339bRdC8h9kaeLes-17" target="qLjY339bRdC8h9kaeLes-58">
          <mxGeometry width="50" height="50" relative="1" as="geometry">
            <mxPoint x="690" y="310" as="sourcePoint" />
            <mxPoint x="740" y="260" as="targetPoint" />
          </mxGeometry>
        </mxCell>
        <mxCell id="qLjY339bRdC8h9kaeLes-78" value="" style="rounded=0;whiteSpace=wrap;html=1;strokeColor=none;" vertex="1" parent="1">
          <mxGeometry x="490" y="550" width="260" height="210" as="geometry" />
        </mxCell>
        <mxCell id="qLjY339bRdC8h9kaeLes-79" value="1" style="ellipse;whiteSpace=wrap;html=1;aspect=fixed;fontSize=18;" vertex="1" parent="1">
          <mxGeometry x="505" y="560" width="30" height="30" as="geometry" />
        </mxCell>
        <mxCell id="qLjY339bRdC8h9kaeLes-80" value="2" style="ellipse;whiteSpace=wrap;html=1;aspect=fixed;fontSize=18;strokeColor=#DFDFDF;" vertex="1" parent="1">
          <mxGeometry x="505" y="640" width="30" height="30" as="geometry" />
        </mxCell>
        <mxCell id="qLjY339bRdC8h9kaeLes-81" value="3" style="ellipse;whiteSpace=wrap;html=1;aspect=fixed;fontSize=18;" vertex="1" parent="1">
          <mxGeometry x="505" y="710" width="30" height="30" as="geometry" />
        </mxCell>
        <mxCell id="qLjY339bRdC8h9kaeLes-94" value="a" style="ellipse;whiteSpace=wrap;html=1;aspect=fixed;fontSize=18;" vertex="1" parent="1">
          <mxGeometry x="575" y="620" width="30" height="30" as="geometry" />
        </mxCell>
        <mxCell id="qLjY339bRdC8h9kaeLes-95" value="c" style="ellipse;whiteSpace=wrap;html=1;aspect=fixed;fontSize=18;" vertex="1" parent="1">
          <mxGeometry x="710" y="650" width="30" height="30" as="geometry" />
        </mxCell>
        <mxCell id="qLjY339bRdC8h9kaeLes-96" value="b" style="ellipse;whiteSpace=wrap;html=1;aspect=fixed;fontSize=18;strokeColor=#DFDFDF;" vertex="1" parent="1">
          <mxGeometry x="595" y="690" width="30" height="30" as="geometry" />
        </mxCell>
        <mxCell id="qLjY339bRdC8h9kaeLes-97" value="e" style="ellipse;whiteSpace=wrap;html=1;aspect=fixed;fontSize=18;strokeColor=#DFDFDF;" vertex="1" parent="1">
          <mxGeometry x="675" y="710" width="30" height="30" as="geometry" />
        </mxCell>
        <mxCell id="qLjY339bRdC8h9kaeLes-99" value="d" style="ellipse;whiteSpace=wrap;html=1;aspect=fixed;fontSize=18;" vertex="1" parent="1">
          <mxGeometry x="680" y="570" width="30" height="30" as="geometry" />
        </mxCell>
        <mxCell id="qLjY339bRdC8h9kaeLes-103" value="" style="endArrow=classic;html=1;rounded=0;" edge="1" source="qLjY339bRdC8h9kaeLes-94" target="qLjY339bRdC8h9kaeLes-95" parent="1">
          <mxGeometry width="50" height="50" relative="1" as="geometry">
            <mxPoint x="685" y="650" as="sourcePoint" />
            <mxPoint x="735" y="600" as="targetPoint" />
          </mxGeometry>
        </mxCell>
        <mxCell id="qLjY339bRdC8h9kaeLes-106" value="" style="endArrow=classic;html=1;rounded=0;" edge="1" source="qLjY339bRdC8h9kaeLes-94" target="qLjY339bRdC8h9kaeLes-99" parent="1">
          <mxGeometry width="50" height="50" relative="1" as="geometry">
            <mxPoint x="685" y="650" as="sourcePoint" />
            <mxPoint x="735" y="600" as="targetPoint" />
          </mxGeometry>
        </mxCell>
        <mxCell id="qLjY339bRdC8h9kaeLes-107" value="" style="endArrow=classic;html=1;rounded=0;" edge="1" source="qLjY339bRdC8h9kaeLes-79" target="qLjY339bRdC8h9kaeLes-94" parent="1">
          <mxGeometry width="50" height="50" relative="1" as="geometry">
            <mxPoint x="685" y="650" as="sourcePoint" />
            <mxPoint x="735" y="600" as="targetPoint" />
          </mxGeometry>
        </mxCell>
        <mxCell id="qLjY339bRdC8h9kaeLes-109" value="" style="endArrow=classic;html=1;rounded=0;strokeColor=#DFDFDF;" edge="1" source="qLjY339bRdC8h9kaeLes-97" target="qLjY339bRdC8h9kaeLes-95" parent="1">
          <mxGeometry width="50" height="50" relative="1" as="geometry">
            <mxPoint x="685" y="650" as="sourcePoint" />
            <mxPoint x="735" y="600" as="targetPoint" />
          </mxGeometry>
        </mxCell>
        <mxCell id="qLjY339bRdC8h9kaeLes-112" value="" style="endArrow=classic;html=1;rounded=0;strokeColor=#DFDFDF;" edge="1" source="qLjY339bRdC8h9kaeLes-96" target="qLjY339bRdC8h9kaeLes-95" parent="1">
          <mxGeometry width="50" height="50" relative="1" as="geometry">
            <mxPoint x="685" y="650" as="sourcePoint" />
            <mxPoint x="735" y="600" as="targetPoint" />
          </mxGeometry>
        </mxCell>
        <mxCell id="qLjY339bRdC8h9kaeLes-113" value="" style="endArrow=classic;html=1;rounded=0;strokeColor=#DFDFDF;" edge="1" source="qLjY339bRdC8h9kaeLes-81" target="qLjY339bRdC8h9kaeLes-96" parent="1">
          <mxGeometry width="50" height="50" relative="1" as="geometry">
            <mxPoint x="685" y="650" as="sourcePoint" />
            <mxPoint x="735" y="600" as="targetPoint" />
          </mxGeometry>
        </mxCell>
        <mxCell id="qLjY339bRdC8h9kaeLes-115" value="" style="endArrow=classic;html=1;rounded=0;strokeColor=#DFDFDF;" edge="1" source="qLjY339bRdC8h9kaeLes-80" target="qLjY339bRdC8h9kaeLes-96" parent="1">
          <mxGeometry width="50" height="50" relative="1" as="geometry">
            <mxPoint x="685" y="650" as="sourcePoint" />
            <mxPoint x="735" y="600" as="targetPoint" />
          </mxGeometry>
        </mxCell>
        <mxCell id="qLjY339bRdC8h9kaeLes-116" value="" style="endArrow=classic;html=1;rounded=0;strokeColor=#DFDFDF;" edge="1" source="qLjY339bRdC8h9kaeLes-96" target="qLjY339bRdC8h9kaeLes-97" parent="1">
          <mxGeometry width="50" height="50" relative="1" as="geometry">
            <mxPoint x="685" y="650" as="sourcePoint" />
            <mxPoint x="735" y="600" as="targetPoint" />
          </mxGeometry>
        </mxCell>
        <mxCell id="qLjY339bRdC8h9kaeLes-117" value="" style="endArrow=classic;html=1;rounded=0;" edge="1" source="qLjY339bRdC8h9kaeLes-81" target="qLjY339bRdC8h9kaeLes-94" parent="1">
          <mxGeometry width="50" height="50" relative="1" as="geometry">
            <mxPoint x="685" y="650" as="sourcePoint" />
            <mxPoint x="735" y="600" as="targetPoint" />
          </mxGeometry>
        </mxCell>
        <mxCell id="qLjY339bRdC8h9kaeLes-118" value="" style="endArrow=classic;html=1;rounded=0;strokeColor=#DFDFDF;" edge="1" source="qLjY339bRdC8h9kaeLes-79" target="qLjY339bRdC8h9kaeLes-99" parent="1">
          <mxGeometry width="50" height="50" relative="1" as="geometry">
            <mxPoint x="685" y="650" as="sourcePoint" />
            <mxPoint x="735" y="600" as="targetPoint" />
          </mxGeometry>
        </mxCell>
        <mxCell id="qLjY339bRdC8h9kaeLes-120" value="S" style="ellipse;whiteSpace=wrap;html=1;aspect=fixed;fontSize=18;" vertex="1" parent="1">
          <mxGeometry x="1120" y="840" width="30" height="30" as="geometry" />
        </mxCell>
        <mxCell id="qLjY339bRdC8h9kaeLes-121" value="1" style="ellipse;whiteSpace=wrap;html=1;aspect=fixed;fontSize=18;" vertex="1" parent="1">
          <mxGeometry x="1180" y="790" width="30" height="30" as="geometry" />
        </mxCell>
        <mxCell id="qLjY339bRdC8h9kaeLes-122" value="2" style="ellipse;whiteSpace=wrap;html=1;aspect=fixed;fontSize=18;" vertex="1" parent="1">
          <mxGeometry x="1241" y="790" width="30" height="30" as="geometry" />
        </mxCell>
        <mxCell id="qLjY339bRdC8h9kaeLes-123" value="3" style="ellipse;whiteSpace=wrap;html=1;aspect=fixed;fontSize=18;" vertex="1" parent="1">
          <mxGeometry x="1241" y="890" width="30" height="30" as="geometry" />
        </mxCell>
        <mxCell id="qLjY339bRdC8h9kaeLes-124" value="4" style="ellipse;whiteSpace=wrap;html=1;aspect=fixed;fontSize=18;" vertex="1" parent="1">
          <mxGeometry x="1300" y="890" width="30" height="30" as="geometry" />
        </mxCell>
        <mxCell id="qLjY339bRdC8h9kaeLes-125" value="5" style="ellipse;whiteSpace=wrap;html=1;aspect=fixed;fontSize=18;" vertex="1" parent="1">
          <mxGeometry x="1300" y="790" width="30" height="30" as="geometry" />
        </mxCell>
        <mxCell id="qLjY339bRdC8h9kaeLes-126" value="T" style="ellipse;whiteSpace=wrap;html=1;aspect=fixed;fontSize=18;" vertex="1" parent="1">
          <mxGeometry x="1360" y="840" width="30" height="30" as="geometry" />
        </mxCell>
        <mxCell id="qLjY339bRdC8h9kaeLes-127" value="6" style="ellipse;whiteSpace=wrap;html=1;aspect=fixed;fontSize=18;" vertex="1" parent="1">
          <mxGeometry x="1180" y="890" width="30" height="30" as="geometry" />
        </mxCell>
        <mxCell id="qLjY339bRdC8h9kaeLes-128" value="" style="endArrow=classic;html=1;rounded=0;" edge="1" parent="1" source="qLjY339bRdC8h9kaeLes-124" target="qLjY339bRdC8h9kaeLes-126">
          <mxGeometry width="50" height="50" relative="1" as="geometry">
            <mxPoint x="1200" y="900" as="sourcePoint" />
            <mxPoint x="1250" y="850" as="targetPoint" />
          </mxGeometry>
        </mxCell>
        <mxCell id="qLjY339bRdC8h9kaeLes-129" value="" style="endArrow=classic;html=1;rounded=0;" edge="1" parent="1" source="qLjY339bRdC8h9kaeLes-124" target="qLjY339bRdC8h9kaeLes-125">
          <mxGeometry width="50" height="50" relative="1" as="geometry">
            <mxPoint x="1200" y="900" as="sourcePoint" />
            <mxPoint x="1250" y="850" as="targetPoint" />
          </mxGeometry>
        </mxCell>
        <mxCell id="qLjY339bRdC8h9kaeLes-130" value="" style="endArrow=classic;html=1;rounded=0;" edge="1" parent="1" source="qLjY339bRdC8h9kaeLes-127" target="qLjY339bRdC8h9kaeLes-123">
          <mxGeometry width="50" height="50" relative="1" as="geometry">
            <mxPoint x="1200" y="900" as="sourcePoint" />
            <mxPoint x="1250" y="850" as="targetPoint" />
          </mxGeometry>
        </mxCell>
        <mxCell id="qLjY339bRdC8h9kaeLes-131" value="" style="endArrow=classic;html=1;rounded=0;" edge="1" parent="1" source="qLjY339bRdC8h9kaeLes-123" target="qLjY339bRdC8h9kaeLes-124">
          <mxGeometry width="50" height="50" relative="1" as="geometry">
            <mxPoint x="1200" y="900" as="sourcePoint" />
            <mxPoint x="1250" y="850" as="targetPoint" />
          </mxGeometry>
        </mxCell>
        <mxCell id="qLjY339bRdC8h9kaeLes-132" value="" style="endArrow=classic;html=1;rounded=0;" edge="1" parent="1" source="qLjY339bRdC8h9kaeLes-122" target="qLjY339bRdC8h9kaeLes-123">
          <mxGeometry width="50" height="50" relative="1" as="geometry">
            <mxPoint x="1200" y="900" as="sourcePoint" />
            <mxPoint x="1250" y="850" as="targetPoint" />
          </mxGeometry>
        </mxCell>
        <mxCell id="qLjY339bRdC8h9kaeLes-133" value="" style="endArrow=classic;html=1;rounded=0;" edge="1" parent="1" source="qLjY339bRdC8h9kaeLes-121" target="qLjY339bRdC8h9kaeLes-122">
          <mxGeometry width="50" height="50" relative="1" as="geometry">
            <mxPoint x="1200" y="900" as="sourcePoint" />
            <mxPoint x="1250" y="850" as="targetPoint" />
          </mxGeometry>
        </mxCell>
        <mxCell id="qLjY339bRdC8h9kaeLes-134" value="" style="endArrow=classic;html=1;rounded=0;" edge="1" parent="1" source="qLjY339bRdC8h9kaeLes-120" target="qLjY339bRdC8h9kaeLes-127">
          <mxGeometry width="50" height="50" relative="1" as="geometry">
            <mxPoint x="1200" y="900" as="sourcePoint" />
            <mxPoint x="1250" y="850" as="targetPoint" />
          </mxGeometry>
        </mxCell>
        <mxCell id="qLjY339bRdC8h9kaeLes-135" value="" style="endArrow=classic;html=1;rounded=0;" edge="1" parent="1" source="qLjY339bRdC8h9kaeLes-120" target="qLjY339bRdC8h9kaeLes-121">
          <mxGeometry width="50" height="50" relative="1" as="geometry">
            <mxPoint x="1200" y="900" as="sourcePoint" />
            <mxPoint x="1250" y="850" as="targetPoint" />
          </mxGeometry>
        </mxCell>
        <mxCell id="qLjY339bRdC8h9kaeLes-136" value="" style="endArrow=classic;html=1;rounded=0;" edge="1" parent="1" source="qLjY339bRdC8h9kaeLes-125" target="qLjY339bRdC8h9kaeLes-126">
          <mxGeometry width="50" height="50" relative="1" as="geometry">
            <mxPoint x="1200" y="900" as="sourcePoint" />
            <mxPoint x="1250" y="850" as="targetPoint" />
          </mxGeometry>
        </mxCell>
        <mxCell id="qLjY339bRdC8h9kaeLes-137" value="" style="endArrow=classic;html=1;rounded=0;" edge="1" parent="1" source="qLjY339bRdC8h9kaeLes-122" target="qLjY339bRdC8h9kaeLes-125">
          <mxGeometry width="50" height="50" relative="1" as="geometry">
            <mxPoint x="1200" y="900" as="sourcePoint" />
            <mxPoint x="1250" y="850" as="targetPoint" />
          </mxGeometry>
        </mxCell>
        <mxCell id="qLjY339bRdC8h9kaeLes-138" value="route =" style="text;html=1;align=center;verticalAlign=middle;whiteSpace=wrap;rounded=0;" vertex="1" parent="1">
          <mxGeometry x="1132" y="750" width="60" height="30" as="geometry" />
        </mxCell>
        <mxCell id="qLjY339bRdC8h9kaeLes-140" value="[0]" style="text;html=1;align=center;verticalAlign=middle;whiteSpace=wrap;rounded=0;" vertex="1" parent="1">
          <mxGeometry x="1188" y="730" width="20" height="30" as="geometry" />
        </mxCell>
        <mxCell id="qLjY339bRdC8h9kaeLes-141" value="[1]" style="text;html=1;align=center;verticalAlign=middle;whiteSpace=wrap;rounded=0;" vertex="1" parent="1">
          <mxGeometry x="1208" y="730" width="20" height="30" as="geometry" />
        </mxCell>
        <mxCell id="qLjY339bRdC8h9kaeLes-142" value="[2]" style="text;html=1;align=center;verticalAlign=middle;whiteSpace=wrap;rounded=0;" vertex="1" parent="1">
          <mxGeometry x="1228.5" y="730" width="20" height="30" as="geometry" />
        </mxCell>
        <mxCell id="qLjY339bRdC8h9kaeLes-143" value="[3]" style="text;html=1;align=center;verticalAlign=middle;whiteSpace=wrap;rounded=0;" vertex="1" parent="1">
          <mxGeometry x="1249" y="730" width="20" height="30" as="geometry" />
        </mxCell>
        <mxCell id="qLjY339bRdC8h9kaeLes-144" value="[4]" style="text;html=1;align=center;verticalAlign=middle;whiteSpace=wrap;rounded=0;" vertex="1" parent="1">
          <mxGeometry x="1269" y="730" width="20" height="30" as="geometry" />
        </mxCell>
        <mxCell id="qLjY339bRdC8h9kaeLes-145" value="[5]" style="text;html=1;align=center;verticalAlign=middle;whiteSpace=wrap;rounded=0;" vertex="1" parent="1">
          <mxGeometry x="1289" y="730" width="20" height="30" as="geometry" />
        </mxCell>
        <mxCell id="qLjY339bRdC8h9kaeLes-146" value="[6]" style="text;html=1;align=center;verticalAlign=middle;whiteSpace=wrap;rounded=0;" vertex="1" parent="1">
          <mxGeometry x="1308" y="730" width="20" height="30" as="geometry" />
        </mxCell>
        <mxCell id="qLjY339bRdC8h9kaeLes-147" value="[7]" style="text;html=1;align=center;verticalAlign=middle;whiteSpace=wrap;rounded=0;" vertex="1" parent="1">
          <mxGeometry x="1328" y="730" width="20" height="30" as="geometry" />
        </mxCell>
        <mxCell id="qLjY339bRdC8h9kaeLes-148" value="0" style="text;html=1;align=center;verticalAlign=middle;whiteSpace=wrap;rounded=0;" vertex="1" parent="1">
          <mxGeometry x="1188" y="750" width="20" height="30" as="geometry" />
        </mxCell>
        <mxCell id="qLjY339bRdC8h9kaeLes-149" value="0" style="text;html=1;align=center;verticalAlign=middle;whiteSpace=wrap;rounded=0;" vertex="1" parent="1">
          <mxGeometry x="1208" y="750" width="20" height="30" as="geometry" />
        </mxCell>
        <mxCell id="qLjY339bRdC8h9kaeLes-150" value="0" style="text;html=1;align=center;verticalAlign=middle;whiteSpace=wrap;rounded=0;" vertex="1" parent="1">
          <mxGeometry x="1228.5" y="750" width="20" height="30" as="geometry" />
        </mxCell>
        <mxCell id="qLjY339bRdC8h9kaeLes-151" value="0" style="text;html=1;align=center;verticalAlign=middle;whiteSpace=wrap;rounded=0;" vertex="1" parent="1">
          <mxGeometry x="1249" y="750" width="20" height="30" as="geometry" />
        </mxCell>
        <mxCell id="qLjY339bRdC8h9kaeLes-152" value="0" style="text;html=1;align=center;verticalAlign=middle;whiteSpace=wrap;rounded=0;" vertex="1" parent="1">
          <mxGeometry x="1269" y="750" width="20" height="30" as="geometry" />
        </mxCell>
        <mxCell id="qLjY339bRdC8h9kaeLes-153" value="0" style="text;html=1;align=center;verticalAlign=middle;whiteSpace=wrap;rounded=0;" vertex="1" parent="1">
          <mxGeometry x="1289" y="750" width="20" height="30" as="geometry" />
        </mxCell>
        <mxCell id="qLjY339bRdC8h9kaeLes-154" value="0" style="text;html=1;align=center;verticalAlign=middle;whiteSpace=wrap;rounded=0;" vertex="1" parent="1">
          <mxGeometry x="1308" y="750" width="20" height="30" as="geometry" />
        </mxCell>
        <mxCell id="qLjY339bRdC8h9kaeLes-155" value="0" style="text;html=1;align=center;verticalAlign=middle;whiteSpace=wrap;rounded=0;" vertex="1" parent="1">
          <mxGeometry x="1328" y="750" width="20" height="30" as="geometry" />
        </mxCell>
        <mxCell id="qLjY339bRdC8h9kaeLes-193" value="" style="rounded=0;whiteSpace=wrap;html=1;strokeColor=none;" vertex="1" parent="1">
          <mxGeometry x="1108.5" y="980" width="291.5" height="200" as="geometry" />
        </mxCell>
        <mxCell id="qLjY339bRdC8h9kaeLes-194" value="S" style="ellipse;whiteSpace=wrap;html=1;aspect=fixed;fontSize=18;" vertex="1" parent="1">
          <mxGeometry x="1120" y="1090" width="30" height="30" as="geometry" />
        </mxCell>
        <mxCell id="qLjY339bRdC8h9kaeLes-195" value="1" style="ellipse;whiteSpace=wrap;html=1;aspect=fixed;fontSize=18;" vertex="1" parent="1">
          <mxGeometry x="1180" y="1040" width="30" height="30" as="geometry" />
        </mxCell>
        <mxCell id="qLjY339bRdC8h9kaeLes-196" value="2" style="ellipse;whiteSpace=wrap;html=1;aspect=fixed;fontSize=18;" vertex="1" parent="1">
          <mxGeometry x="1241" y="1040" width="30" height="30" as="geometry" />
        </mxCell>
        <mxCell id="qLjY339bRdC8h9kaeLes-197" value="3" style="ellipse;whiteSpace=wrap;html=1;aspect=fixed;fontSize=18;" vertex="1" parent="1">
          <mxGeometry x="1241" y="1140" width="30" height="30" as="geometry" />
        </mxCell>
        <mxCell id="qLjY339bRdC8h9kaeLes-198" value="4" style="ellipse;whiteSpace=wrap;html=1;aspect=fixed;fontSize=18;" vertex="1" parent="1">
          <mxGeometry x="1300" y="1140" width="30" height="30" as="geometry" />
        </mxCell>
        <mxCell id="qLjY339bRdC8h9kaeLes-199" value="5" style="ellipse;whiteSpace=wrap;html=1;aspect=fixed;fontSize=18;" vertex="1" parent="1">
          <mxGeometry x="1300" y="1040" width="30" height="30" as="geometry" />
        </mxCell>
        <mxCell id="qLjY339bRdC8h9kaeLes-200" value="T" style="ellipse;whiteSpace=wrap;html=1;aspect=fixed;fontSize=18;" vertex="1" parent="1">
          <mxGeometry x="1360" y="1090" width="30" height="30" as="geometry" />
        </mxCell>
        <mxCell id="qLjY339bRdC8h9kaeLes-201" value="6" style="ellipse;whiteSpace=wrap;html=1;aspect=fixed;fontSize=18;" vertex="1" parent="1">
          <mxGeometry x="1180" y="1140" width="30" height="30" as="geometry" />
        </mxCell>
        <mxCell id="qLjY339bRdC8h9kaeLes-202" value="" style="endArrow=classic;html=1;rounded=0;" edge="1" parent="1" source="qLjY339bRdC8h9kaeLes-198" target="qLjY339bRdC8h9kaeLes-200">
          <mxGeometry width="50" height="50" relative="1" as="geometry">
            <mxPoint x="1200" y="1150" as="sourcePoint" />
            <mxPoint x="1250" y="1100" as="targetPoint" />
          </mxGeometry>
        </mxCell>
        <mxCell id="qLjY339bRdC8h9kaeLes-203" value="" style="endArrow=classic;html=1;rounded=0;strokeWidth=2;strokeColor=#EA6B66;" edge="1" parent="1" source="qLjY339bRdC8h9kaeLes-198" target="qLjY339bRdC8h9kaeLes-199">
          <mxGeometry width="50" height="50" relative="1" as="geometry">
            <mxPoint x="1200" y="1150" as="sourcePoint" />
            <mxPoint x="1250" y="1100" as="targetPoint" />
          </mxGeometry>
        </mxCell>
        <mxCell id="qLjY339bRdC8h9kaeLes-204" value="" style="endArrow=classic;html=1;rounded=0;" edge="1" parent="1" source="qLjY339bRdC8h9kaeLes-201" target="qLjY339bRdC8h9kaeLes-197">
          <mxGeometry width="50" height="50" relative="1" as="geometry">
            <mxPoint x="1200" y="1150" as="sourcePoint" />
            <mxPoint x="1250" y="1100" as="targetPoint" />
          </mxGeometry>
        </mxCell>
        <mxCell id="qLjY339bRdC8h9kaeLes-205" value="" style="endArrow=classic;html=1;rounded=0;strokeWidth=2;strokeColor=#EA6B66;" edge="1" parent="1" source="qLjY339bRdC8h9kaeLes-197" target="qLjY339bRdC8h9kaeLes-198">
          <mxGeometry width="50" height="50" relative="1" as="geometry">
            <mxPoint x="1200" y="1150" as="sourcePoint" />
            <mxPoint x="1250" y="1100" as="targetPoint" />
          </mxGeometry>
        </mxCell>
        <mxCell id="qLjY339bRdC8h9kaeLes-206" value="" style="endArrow=classic;html=1;rounded=0;strokeWidth=2;strokeColor=#EA6B66;" edge="1" parent="1" source="qLjY339bRdC8h9kaeLes-196" target="qLjY339bRdC8h9kaeLes-197">
          <mxGeometry width="50" height="50" relative="1" as="geometry">
            <mxPoint x="1200" y="1150" as="sourcePoint" />
            <mxPoint x="1250" y="1100" as="targetPoint" />
          </mxGeometry>
        </mxCell>
        <mxCell id="qLjY339bRdC8h9kaeLes-207" value="" style="endArrow=classic;html=1;rounded=0;strokeWidth=2;strokeColor=#EA6B66;" edge="1" parent="1" source="qLjY339bRdC8h9kaeLes-195" target="qLjY339bRdC8h9kaeLes-196">
          <mxGeometry width="50" height="50" relative="1" as="geometry">
            <mxPoint x="1200" y="1150" as="sourcePoint" />
            <mxPoint x="1250" y="1100" as="targetPoint" />
          </mxGeometry>
        </mxCell>
        <mxCell id="qLjY339bRdC8h9kaeLes-208" value="" style="endArrow=classic;html=1;rounded=0;" edge="1" parent="1" source="qLjY339bRdC8h9kaeLes-194" target="qLjY339bRdC8h9kaeLes-201">
          <mxGeometry width="50" height="50" relative="1" as="geometry">
            <mxPoint x="1200" y="1150" as="sourcePoint" />
            <mxPoint x="1250" y="1100" as="targetPoint" />
          </mxGeometry>
        </mxCell>
        <mxCell id="qLjY339bRdC8h9kaeLes-209" value="" style="endArrow=classic;html=1;rounded=0;strokeWidth=2;strokeColor=#EA6B66;" edge="1" parent="1" source="qLjY339bRdC8h9kaeLes-194" target="qLjY339bRdC8h9kaeLes-195">
          <mxGeometry width="50" height="50" relative="1" as="geometry">
            <mxPoint x="1200" y="1150" as="sourcePoint" />
            <mxPoint x="1250" y="1100" as="targetPoint" />
          </mxGeometry>
        </mxCell>
        <mxCell id="qLjY339bRdC8h9kaeLes-210" value="" style="endArrow=classic;html=1;rounded=0;strokeWidth=2;strokeColor=#EA6B66;" edge="1" parent="1" source="qLjY339bRdC8h9kaeLes-199" target="qLjY339bRdC8h9kaeLes-200">
          <mxGeometry width="50" height="50" relative="1" as="geometry">
            <mxPoint x="1200" y="1150" as="sourcePoint" />
            <mxPoint x="1250" y="1100" as="targetPoint" />
          </mxGeometry>
        </mxCell>
        <mxCell id="qLjY339bRdC8h9kaeLes-211" value="" style="endArrow=classic;html=1;rounded=0;" edge="1" parent="1" source="qLjY339bRdC8h9kaeLes-196" target="qLjY339bRdC8h9kaeLes-199">
          <mxGeometry width="50" height="50" relative="1" as="geometry">
            <mxPoint x="1200" y="1150" as="sourcePoint" />
            <mxPoint x="1250" y="1100" as="targetPoint" />
          </mxGeometry>
        </mxCell>
        <mxCell id="qLjY339bRdC8h9kaeLes-212" value="route =" style="text;html=1;align=center;verticalAlign=middle;whiteSpace=wrap;rounded=0;" vertex="1" parent="1">
          <mxGeometry x="1132" y="1000" width="60" height="30" as="geometry" />
        </mxCell>
        <mxCell id="qLjY339bRdC8h9kaeLes-213" value="[0]" style="text;html=1;align=center;verticalAlign=middle;whiteSpace=wrap;rounded=0;" vertex="1" parent="1">
          <mxGeometry x="1188" y="980" width="20" height="30" as="geometry" />
        </mxCell>
        <mxCell id="qLjY339bRdC8h9kaeLes-214" value="[1]" style="text;html=1;align=center;verticalAlign=middle;whiteSpace=wrap;rounded=0;" vertex="1" parent="1">
          <mxGeometry x="1208" y="980" width="20" height="30" as="geometry" />
        </mxCell>
        <mxCell id="qLjY339bRdC8h9kaeLes-215" value="[2]" style="text;html=1;align=center;verticalAlign=middle;whiteSpace=wrap;rounded=0;" vertex="1" parent="1">
          <mxGeometry x="1228.5" y="980" width="20" height="30" as="geometry" />
        </mxCell>
        <mxCell id="qLjY339bRdC8h9kaeLes-216" value="[3]" style="text;html=1;align=center;verticalAlign=middle;whiteSpace=wrap;rounded=0;" vertex="1" parent="1">
          <mxGeometry x="1249" y="980" width="20" height="30" as="geometry" />
        </mxCell>
        <mxCell id="qLjY339bRdC8h9kaeLes-217" value="[4]" style="text;html=1;align=center;verticalAlign=middle;whiteSpace=wrap;rounded=0;" vertex="1" parent="1">
          <mxGeometry x="1269" y="980" width="20" height="30" as="geometry" />
        </mxCell>
        <mxCell id="qLjY339bRdC8h9kaeLes-218" value="[5]" style="text;html=1;align=center;verticalAlign=middle;whiteSpace=wrap;rounded=0;" vertex="1" parent="1">
          <mxGeometry x="1289" y="980" width="20" height="30" as="geometry" />
        </mxCell>
        <mxCell id="qLjY339bRdC8h9kaeLes-219" value="[6]" style="text;html=1;align=center;verticalAlign=middle;whiteSpace=wrap;rounded=0;" vertex="1" parent="1">
          <mxGeometry x="1308" y="980" width="20" height="30" as="geometry" />
        </mxCell>
        <mxCell id="qLjY339bRdC8h9kaeLes-220" value="[7]" style="text;html=1;align=center;verticalAlign=middle;whiteSpace=wrap;rounded=0;" vertex="1" parent="1">
          <mxGeometry x="1328" y="980" width="20" height="30" as="geometry" />
        </mxCell>
        <mxCell id="qLjY339bRdC8h9kaeLes-221" value="1" style="text;html=1;align=center;verticalAlign=middle;whiteSpace=wrap;rounded=0;" vertex="1" parent="1">
          <mxGeometry x="1188" y="1000" width="20" height="30" as="geometry" />
        </mxCell>
        <mxCell id="qLjY339bRdC8h9kaeLes-222" value="2" style="text;html=1;align=center;verticalAlign=middle;whiteSpace=wrap;rounded=0;" vertex="1" parent="1">
          <mxGeometry x="1208" y="1000" width="20" height="30" as="geometry" />
        </mxCell>
        <mxCell id="qLjY339bRdC8h9kaeLes-223" value="3" style="text;html=1;align=center;verticalAlign=middle;whiteSpace=wrap;rounded=0;" vertex="1" parent="1">
          <mxGeometry x="1228.5" y="1000" width="20" height="30" as="geometry" />
        </mxCell>
        <mxCell id="qLjY339bRdC8h9kaeLes-224" value="4" style="text;html=1;align=center;verticalAlign=middle;whiteSpace=wrap;rounded=0;" vertex="1" parent="1">
          <mxGeometry x="1249" y="1000" width="20" height="30" as="geometry" />
        </mxCell>
        <mxCell id="qLjY339bRdC8h9kaeLes-225" value="5" style="text;html=1;align=center;verticalAlign=middle;whiteSpace=wrap;rounded=0;" vertex="1" parent="1">
          <mxGeometry x="1269" y="1000" width="20" height="30" as="geometry" />
        </mxCell>
        <mxCell id="qLjY339bRdC8h9kaeLes-226" value="7" style="text;html=1;align=center;verticalAlign=middle;whiteSpace=wrap;rounded=0;" vertex="1" parent="1">
          <mxGeometry x="1289" y="1000" width="20" height="30" as="geometry" />
        </mxCell>
        <mxCell id="qLjY339bRdC8h9kaeLes-227" value="0" style="text;html=1;align=center;verticalAlign=middle;whiteSpace=wrap;rounded=0;" vertex="1" parent="1">
          <mxGeometry x="1308" y="1000" width="20" height="30" as="geometry" />
        </mxCell>
        <mxCell id="qLjY339bRdC8h9kaeLes-228" value="0" style="text;html=1;align=center;verticalAlign=middle;whiteSpace=wrap;rounded=0;" vertex="1" parent="1">
          <mxGeometry x="1328" y="1000" width="20" height="30" as="geometry" />
        </mxCell>
        <mxCell id="qLjY339bRdC8h9kaeLes-229" value="" style="rounded=0;whiteSpace=wrap;html=1;strokeColor=none;" vertex="1" parent="1">
          <mxGeometry x="1108.5" y="1210" width="291.5" height="200" as="geometry" />
        </mxCell>
        <mxCell id="qLjY339bRdC8h9kaeLes-230" value="S" style="ellipse;whiteSpace=wrap;html=1;aspect=fixed;fontSize=18;" vertex="1" parent="1">
          <mxGeometry x="1120" y="1320" width="30" height="30" as="geometry" />
        </mxCell>
        <mxCell id="qLjY339bRdC8h9kaeLes-231" value="1" style="ellipse;whiteSpace=wrap;html=1;aspect=fixed;fontSize=18;" vertex="1" parent="1">
          <mxGeometry x="1180" y="1270" width="30" height="30" as="geometry" />
        </mxCell>
        <mxCell id="qLjY339bRdC8h9kaeLes-232" value="2" style="ellipse;whiteSpace=wrap;html=1;aspect=fixed;fontSize=18;" vertex="1" parent="1">
          <mxGeometry x="1241" y="1270" width="30" height="30" as="geometry" />
        </mxCell>
        <mxCell id="qLjY339bRdC8h9kaeLes-233" value="3" style="ellipse;whiteSpace=wrap;html=1;aspect=fixed;fontSize=18;" vertex="1" parent="1">
          <mxGeometry x="1241" y="1370" width="30" height="30" as="geometry" />
        </mxCell>
        <mxCell id="qLjY339bRdC8h9kaeLes-234" value="4" style="ellipse;whiteSpace=wrap;html=1;aspect=fixed;fontSize=18;" vertex="1" parent="1">
          <mxGeometry x="1300" y="1370" width="30" height="30" as="geometry" />
        </mxCell>
        <mxCell id="qLjY339bRdC8h9kaeLes-235" value="5" style="ellipse;whiteSpace=wrap;html=1;aspect=fixed;fontSize=18;" vertex="1" parent="1">
          <mxGeometry x="1300" y="1270" width="30" height="30" as="geometry" />
        </mxCell>
        <mxCell id="qLjY339bRdC8h9kaeLes-236" value="T" style="ellipse;whiteSpace=wrap;html=1;aspect=fixed;fontSize=18;" vertex="1" parent="1">
          <mxGeometry x="1360" y="1320" width="30" height="30" as="geometry" />
        </mxCell>
        <mxCell id="qLjY339bRdC8h9kaeLes-237" value="6" style="ellipse;whiteSpace=wrap;html=1;aspect=fixed;fontSize=18;" vertex="1" parent="1">
          <mxGeometry x="1180" y="1370" width="30" height="30" as="geometry" />
        </mxCell>
        <mxCell id="qLjY339bRdC8h9kaeLes-238" value="" style="endArrow=classic;html=1;rounded=0;strokeWidth=2;strokeColor=#6666FF;" edge="1" source="qLjY339bRdC8h9kaeLes-234" target="qLjY339bRdC8h9kaeLes-236" parent="1">
          <mxGeometry width="50" height="50" relative="1" as="geometry">
            <mxPoint x="1200" y="1380" as="sourcePoint" />
            <mxPoint x="1250" y="1330" as="targetPoint" />
          </mxGeometry>
        </mxCell>
        <mxCell id="qLjY339bRdC8h9kaeLes-239" value="" style="endArrow=classic;html=1;rounded=0;strokeWidth=2;strokeColor=#EA6B66;" edge="1" source="qLjY339bRdC8h9kaeLes-234" target="qLjY339bRdC8h9kaeLes-235" parent="1">
          <mxGeometry width="50" height="50" relative="1" as="geometry">
            <mxPoint x="1200" y="1380" as="sourcePoint" />
            <mxPoint x="1250" y="1330" as="targetPoint" />
            <Array as="points">
              <mxPoint x="1320" y="1340" />
            </Array>
          </mxGeometry>
        </mxCell>
        <mxCell id="qLjY339bRdC8h9kaeLes-240" value="" style="endArrow=classic;html=1;rounded=0;strokeWidth=2;strokeColor=#6666FF;" edge="1" source="qLjY339bRdC8h9kaeLes-237" target="qLjY339bRdC8h9kaeLes-233" parent="1">
          <mxGeometry width="50" height="50" relative="1" as="geometry">
            <mxPoint x="1200" y="1380" as="sourcePoint" />
            <mxPoint x="1250" y="1330" as="targetPoint" />
          </mxGeometry>
        </mxCell>
        <mxCell id="qLjY339bRdC8h9kaeLes-241" value="" style="endArrow=classic;html=1;rounded=0;strokeWidth=2;strokeColor=#EA6B66;" edge="1" source="qLjY339bRdC8h9kaeLes-233" target="qLjY339bRdC8h9kaeLes-234" parent="1">
          <mxGeometry width="50" height="50" relative="1" as="geometry">
            <mxPoint x="1200" y="1380" as="sourcePoint" />
            <mxPoint x="1250" y="1330" as="targetPoint" />
          </mxGeometry>
        </mxCell>
        <mxCell id="qLjY339bRdC8h9kaeLes-242" value="" style="endArrow=classic;html=1;rounded=0;strokeWidth=2;strokeColor=#EA6B66;" edge="1" source="qLjY339bRdC8h9kaeLes-232" target="qLjY339bRdC8h9kaeLes-233" parent="1">
          <mxGeometry width="50" height="50" relative="1" as="geometry">
            <mxPoint x="1200" y="1380" as="sourcePoint" />
            <mxPoint x="1250" y="1330" as="targetPoint" />
            <Array as="points">
              <mxPoint x="1250" y="1340" />
            </Array>
          </mxGeometry>
        </mxCell>
        <mxCell id="qLjY339bRdC8h9kaeLes-243" value="" style="endArrow=classic;html=1;rounded=0;strokeWidth=2;strokeColor=#EA6B66;" edge="1" source="qLjY339bRdC8h9kaeLes-231" target="qLjY339bRdC8h9kaeLes-232" parent="1">
          <mxGeometry width="50" height="50" relative="1" as="geometry">
            <mxPoint x="1200" y="1380" as="sourcePoint" />
            <mxPoint x="1250" y="1330" as="targetPoint" />
          </mxGeometry>
        </mxCell>
        <mxCell id="qLjY339bRdC8h9kaeLes-244" value="" style="endArrow=classic;html=1;rounded=0;strokeWidth=2;strokeColor=#6666FF;" edge="1" source="qLjY339bRdC8h9kaeLes-230" target="qLjY339bRdC8h9kaeLes-237" parent="1">
          <mxGeometry width="50" height="50" relative="1" as="geometry">
            <mxPoint x="1200" y="1380" as="sourcePoint" />
            <mxPoint x="1250" y="1330" as="targetPoint" />
          </mxGeometry>
        </mxCell>
        <mxCell id="qLjY339bRdC8h9kaeLes-245" value="" style="endArrow=classic;html=1;rounded=0;strokeWidth=2;strokeColor=#EA6B66;" edge="1" source="qLjY339bRdC8h9kaeLes-230" target="qLjY339bRdC8h9kaeLes-231" parent="1">
          <mxGeometry width="50" height="50" relative="1" as="geometry">
            <mxPoint x="1200" y="1380" as="sourcePoint" />
            <mxPoint x="1250" y="1330" as="targetPoint" />
          </mxGeometry>
        </mxCell>
        <mxCell id="qLjY339bRdC8h9kaeLes-246" value="" style="endArrow=classic;html=1;rounded=0;strokeWidth=2;strokeColor=#EA6B66;" edge="1" source="qLjY339bRdC8h9kaeLes-235" target="qLjY339bRdC8h9kaeLes-236" parent="1">
          <mxGeometry width="50" height="50" relative="1" as="geometry">
            <mxPoint x="1200" y="1380" as="sourcePoint" />
            <mxPoint x="1250" y="1330" as="targetPoint" />
          </mxGeometry>
        </mxCell>
        <mxCell id="qLjY339bRdC8h9kaeLes-247" value="" style="endArrow=classic;html=1;rounded=0;strokeWidth=2;strokeColor=#6666FF;" edge="1" source="qLjY339bRdC8h9kaeLes-232" target="qLjY339bRdC8h9kaeLes-235" parent="1">
          <mxGeometry width="50" height="50" relative="1" as="geometry">
            <mxPoint x="1200" y="1380" as="sourcePoint" />
            <mxPoint x="1250" y="1330" as="targetPoint" />
          </mxGeometry>
        </mxCell>
        <mxCell id="qLjY339bRdC8h9kaeLes-248" value="route =" style="text;html=1;align=center;verticalAlign=middle;whiteSpace=wrap;rounded=0;" vertex="1" parent="1">
          <mxGeometry x="1132" y="1230" width="60" height="30" as="geometry" />
        </mxCell>
        <mxCell id="qLjY339bRdC8h9kaeLes-249" value="[0]" style="text;html=1;align=center;verticalAlign=middle;whiteSpace=wrap;rounded=0;" vertex="1" parent="1">
          <mxGeometry x="1188" y="1210" width="20" height="30" as="geometry" />
        </mxCell>
        <mxCell id="qLjY339bRdC8h9kaeLes-250" value="[1]" style="text;html=1;align=center;verticalAlign=middle;whiteSpace=wrap;rounded=0;" vertex="1" parent="1">
          <mxGeometry x="1208" y="1210" width="20" height="30" as="geometry" />
        </mxCell>
        <mxCell id="qLjY339bRdC8h9kaeLes-251" value="[2]" style="text;html=1;align=center;verticalAlign=middle;whiteSpace=wrap;rounded=0;" vertex="1" parent="1">
          <mxGeometry x="1228.5" y="1210" width="20" height="30" as="geometry" />
        </mxCell>
        <mxCell id="qLjY339bRdC8h9kaeLes-252" value="[3]" style="text;html=1;align=center;verticalAlign=middle;whiteSpace=wrap;rounded=0;" vertex="1" parent="1">
          <mxGeometry x="1249" y="1210" width="20" height="30" as="geometry" />
        </mxCell>
        <mxCell id="qLjY339bRdC8h9kaeLes-253" value="[4]" style="text;html=1;align=center;verticalAlign=middle;whiteSpace=wrap;rounded=0;" vertex="1" parent="1">
          <mxGeometry x="1269" y="1210" width="20" height="30" as="geometry" />
        </mxCell>
        <mxCell id="qLjY339bRdC8h9kaeLes-254" value="[5]" style="text;html=1;align=center;verticalAlign=middle;whiteSpace=wrap;rounded=0;" vertex="1" parent="1">
          <mxGeometry x="1289" y="1210" width="20" height="30" as="geometry" />
        </mxCell>
        <mxCell id="qLjY339bRdC8h9kaeLes-255" value="[6]" style="text;html=1;align=center;verticalAlign=middle;whiteSpace=wrap;rounded=0;" vertex="1" parent="1">
          <mxGeometry x="1308" y="1210" width="20" height="30" as="geometry" />
        </mxCell>
        <mxCell id="qLjY339bRdC8h9kaeLes-256" value="[7]" style="text;html=1;align=center;verticalAlign=middle;whiteSpace=wrap;rounded=0;" vertex="1" parent="1">
          <mxGeometry x="1328" y="1210" width="20" height="30" as="geometry" />
        </mxCell>
        <mxCell id="qLjY339bRdC8h9kaeLes-257" value="6" style="text;html=1;align=center;verticalAlign=middle;whiteSpace=wrap;rounded=0;" vertex="1" parent="1">
          <mxGeometry x="1188" y="1230" width="20" height="30" as="geometry" />
        </mxCell>
        <mxCell id="qLjY339bRdC8h9kaeLes-258" value="2" style="text;html=1;align=center;verticalAlign=middle;whiteSpace=wrap;rounded=0;" vertex="1" parent="1">
          <mxGeometry x="1208" y="1230" width="20" height="30" as="geometry" />
        </mxCell>
        <mxCell id="qLjY339bRdC8h9kaeLes-259" value="5" style="text;html=1;align=center;verticalAlign=middle;whiteSpace=wrap;rounded=0;fontColor=#6666FF;fontStyle=1" vertex="1" parent="1">
          <mxGeometry x="1228.5" y="1230" width="20" height="30" as="geometry" />
        </mxCell>
        <mxCell id="qLjY339bRdC8h9kaeLes-260" value="4" style="text;html=1;align=center;verticalAlign=middle;whiteSpace=wrap;rounded=0;fontColor=#EA6B66;fontStyle=1" vertex="1" parent="1">
          <mxGeometry x="1249" y="1230" width="20" height="30" as="geometry" />
        </mxCell>
        <mxCell id="qLjY339bRdC8h9kaeLes-261" value="7" style="text;html=1;align=center;verticalAlign=middle;whiteSpace=wrap;rounded=0;fontColor=#6666FF;fontStyle=1" vertex="1" parent="1">
          <mxGeometry x="1269" y="1230" width="20" height="30" as="geometry" />
        </mxCell>
        <mxCell id="qLjY339bRdC8h9kaeLes-262" value="7" style="text;html=1;align=center;verticalAlign=middle;whiteSpace=wrap;rounded=0;fontColor=#EA6B66;fontStyle=1" vertex="1" parent="1">
          <mxGeometry x="1289" y="1230" width="20" height="30" as="geometry" />
        </mxCell>
        <mxCell id="qLjY339bRdC8h9kaeLes-263" value="3" style="text;html=1;align=center;verticalAlign=middle;whiteSpace=wrap;rounded=0;" vertex="1" parent="1">
          <mxGeometry x="1308" y="1230" width="20" height="30" as="geometry" />
        </mxCell>
        <mxCell id="qLjY339bRdC8h9kaeLes-264" value="0" style="text;html=1;align=center;verticalAlign=middle;whiteSpace=wrap;rounded=0;" vertex="1" parent="1">
          <mxGeometry x="1328" y="1230" width="20" height="30" as="geometry" />
        </mxCell>
        <mxCell id="qLjY339bRdC8h9kaeLes-265" value="" style="endArrow=classic;html=1;rounded=0;strokeColor=#6666FF;strokeWidth=2;" edge="1" parent="1" source="qLjY339bRdC8h9kaeLes-235" target="qLjY339bRdC8h9kaeLes-234">
          <mxGeometry width="50" height="50" relative="1" as="geometry">
            <mxPoint x="1280" y="1290" as="sourcePoint" />
            <mxPoint x="1330" y="1240" as="targetPoint" />
            <Array as="points">
              <mxPoint x="1310" y="1340" />
            </Array>
          </mxGeometry>
        </mxCell>
        <mxCell id="qLjY339bRdC8h9kaeLes-266" value="" style="endArrow=classic;html=1;rounded=0;strokeWidth=2;strokeColor=#6666FF;" edge="1" parent="1" source="qLjY339bRdC8h9kaeLes-233" target="qLjY339bRdC8h9kaeLes-232">
          <mxGeometry width="50" height="50" relative="1" as="geometry">
            <mxPoint x="1280" y="1290" as="sourcePoint" />
            <mxPoint x="1330" y="1240" as="targetPoint" />
            <Array as="points">
              <mxPoint x="1260" y="1340" />
            </Array>
          </mxGeometry>
        </mxCell>
      </root>
    </mxGraphModel>
  </diagram>
</mxfile>
